**ABCDEFGHIJKLMNOPQRSTUVWXYZabcdefghijklmnopqrstuvwxyz**************************
**PARASOLID !"#$%&'()*+,-./:;<=>?@[\]^_`{|}~0123456789**************************
**PART1;
MC=AMD64;
MC_MODEL=Intel64 Family 6 Model 60 Stepping 3, GenuineIntel;
MC_ID=unknown;
OS=Windows_NT;
OS_RELEASE=unknown;
FRU=Parasolid Version 30.0, build 298, 12-15-2017;
APPL=SOLIDWORKS 2018-2018056;
SITE=;
USER=unknown;
FORMAT=text;
GUISE=transmit;
KEY=VENTOSA;
FILE=VENTOSA.x_t;
DATE=Wed Dec 28 16:28:21 2022;
**PART2;
SCH=SCH_3000298_30000;
USFLD_SIZE=0;
**PART3;
**END_OF_HEADER*****************************************************************
T51 : TRANSMIT FILE created by modeller version 300029823 SCH_3000298_30000_1300
6205 0 12 33 CCCCCCI4 mesh1006 0 I8 polyline1008 0 CCCCCCCDI5 owner1040 0 CCCCCC
I13 boundary_mesh1006 0 I17 boundary_polyline1008 0 CCCA16 index_map_offset0 0 1
 dA9 index_map82 0 A17 node_id_index_map82 0 A20 schema_embedding_map82 0 A5 chi
ld12 0 A14 lowest_node_id0 0 1 dZ1 355 2 3 0 0 0 0 0 0 1e3 1e-8 0 4 0 1 0 1 1 5
 6 7 8 0 0 9 10 11 0 0 0 0 0 0 81 255 2 2 280 12 1 0 0 0 0 13 0 70 11 CI9 list_t
ype0 0 1 uI10 notransmit0 0 1 lCCCDCCDI12 finger_index0 0 1 dI12 finger_block101
2 0 CZ3 0 4 T1 0 0 3 20 1 14 14 13 255 5 35 0 1 0 15 0 0 16 0 54 255 6 272 0 17
 18 0 0 +0 .00459387094274443 0 0 1 0 .0043 3e-4 0 0 1 31 255 7 256 0 10 19 0 0
 +0 .004321427953075345 0 0 -1 0 0 0 -1 .004174402160129365 29 255 8 27 0 11 0 0
 0 .0041 650521303491303e-33 19 8 CCCCCCCA5 owner12 0 Z9 39 0 1 16 0 20 V0 16 25
5 10 253 0 ?21 0 22 7 0 0 1 18 255 11 25 0 23 0 0 8 ?1 17 255 23 0 24 23 23 11 0
 0 0 0 ?15 255 24 55 0 23 25 0 14 255 25 56 26 ?27 28 29 5 30 +0 0 27 28 20 81 1
 26 345 31 25 32 0 0 33 34 14 27 116 33 ?35 25 36 5 37 -38 38 35 25 20 14 28 61
 39 ?25 15 40 5 41 +0 0 25 15 20 15 29 91 0 42 25 24 54 30 68 0 25 37 41 0 -0 -.
00470304340477885 0 0 -1 0 .001167531269012264 .00888012964153913 0 0 -1 13 20 3
8 0 0 0 0 0 0 9 15 14 15 64 43 ?28 0 44 5 45 +0 0 28 0 20 81 1 43 348 31 15 46 0
 39 47 48 15 44 254 0 21 15 49 54 45 70 0 15 41 18 0 +0 -.00568457203789726 0 0
 -1 0 -.00043842339334959 .01101808492462152 0 0 -1 50 255 41 69 0 28 30 45 0 +0
 0 -.009 0 -1 0 0 0 -1 52 255 18 239 0 50 45 6 0 +0 .0094 0 0 -1 0 .003 .7071067
81186546 .707106781186549 0 0 -1 14 50 232 47 ?17 38 51 5 18 +0 0 17 38 20 81 1
 47 349 31 50 52 0 43 53 54 14 17 265 53 ?0 50 55 5 6 -0 0 0 50 20 14 38 146 56
 ?50 57 58 5 37 -27 27 50 57 20 15 51 233 0 59 50 60 17 59 0 51 59 59 0 61 62 0
 0 -15 60 234 0 63 50 0 17 63 0 60 63 63 0 64 65 0 0 -17 64 0 66 64 64 0 63 65 0
 0 +16 65 214 0 ?64 62 67 68 0 0 1 16 62 220 0 ?61 22 65 69 0 0 1 16 67 58 0 ?70
 65 71 72 0 0 1 31 68 217 0 65 73 69 0 +0 .0094 0 0 1 0 0 0 1 .003 31 73 151 0 7
4 75 68 0 +0 .0079 0 0 1 0 0 0 1 .004 31 69 223 0 62 68 19 0 -0 .0084 0 0 1 0 0
 0 1 .004 31 19 250 0 22 69 7 0 +0 .00459387094274443 0 0 1 0 0 0 1 .004 16 22 2
47 0 ?76 10 62 19 0 0 1 17 76 0 36 76 76 0 77 22 0 0 +15 36 248 0 76 27 78 17 77
 0 79 77 77 0 76 22 0 0 -15 79 267 0 77 17 0 15 78 143 0 80 27 0 17 80 0 78 80 8
0 0 81 82 0 0 +17 81 0 83 81 81 0 80 82 0 0 -16 82 158 0 ?80 74 84 75 0 0 1 16 7
4 157 0 ?85 71 82 73 0 0 1 16 84 156 0 ?86 82 87 88 0 0 1 31 75 145 0 82 72 73 0
 +0 .0059 0 0 -1 0 0 0 -1 .004 31 72 73 0 67 89 75 0 +0 0 0 0 -1 0 0 0 -1 .009 3
1 89 72 0 71 88 72 0 +0 0 0 0 -1 0 0 0 -1 .0087 16 71 53 0 ?42 67 74 89 0 0 1 31
 88 193 0 84 90 89 0 +0 .0079 0 0 -1 0 0 0 -1 .003 31 90 194 0 87 0 88 0 +0 .005
9 0 0 -1 0 0 0 -1 .003 16 87 160 0 ?91 84 0 90 0 0 1 17 91 0 92 91 91 0 93 87 0
 0 +15 92 168 0 91 94 83 17 93 0 95 93 93 0 91 87 0 0 -15 95 180 0 93 96 97 14 9
6 178 98 ?57 94 95 5 99 -0 0 57 94 20 15 97 181 0 86 96 0 17 86 0 97 86 86 0 100
 84 0 0 +17 100 0 101 100 100 0 86 84 0 0 -15 101 164 0 100 35 102 14 35 162 103
 ?94 27 101 5 104 -0 0 94 27 20 15 102 165 0 105 35 0 17 105 0 102 105 105 0 85
 74 0 0 -17 85 0 106 85 85 0 105 74 0 0 +15 106 149 0 85 38 0 81 1 103 353 31 35
 107 0 98 108 109 14 94 166 108 ?96 35 92 5 110 -0 0 96 35 20 50 104 189 0 35 99
 111 0 +.003 .0079 0 0 1 0 0 0 1 51 255 99 190 0 96 110 104 0 -0 0 0 0 -1 0 .003
 0 0 -1 50 111 131 0 57 104 37 0 +0 .0094 0 0 1 0 0 0 1 14 57 121 112 ?38 96 66
 5 111 +0 0 38 96 20 51 37 129 0 27 111 30 0 -0 .0094 0 0 -1 0 .004 0 0 -1 81 1
 112 355 31 57 113 0 108 0 114 15 66 215 0 64 57 0 80 255 1 31 115 116 9000 1 1
 1 1 1 1 1 1 0 FFFFTFTFFFFFFF1 81 1 113 317 117 57 0 112 118 119 120 81 1 108 35
4 31 94 121 0 103 112 122 82 255 1 114 832241821 81 1 121 315 117 94 0 108 107 1
18 123 82 1 122 858587292 80 1 117 0 124 8001 0 0 0 0 3 5 0 0 0 FFFFTFTFFFFFFF2
 81 1 107 314 117 35 0 103 125 121 126 81 1 118 316 117 96 0 98 121 113 127 83 2
55 3 123 1 1 1 81 1 98 352 31 96 118 0 56 103 128 83 3 127 1 1 1 81 1 56 351 31
 38 119 0 53 98 129 82 1 128 853606556 81 1 119 318 117 38 0 56 113 52 130 81 1
 53 350 31 17 131 0 47 56 132 82 1 129 857604253 81 1 131 320 117 17 0 53 52 0 1
33 82 1 132 867172510 81 1 52 319 117 50 0 47 119 131 134 83 3 133 1 1 1 83 3 13
4 1 1 1 83 3 130 1 1 1 81 1 125 313 117 27 0 33 32 107 135 83 3 126 1 1 1 81 1 3
3 346 31 27 125 0 26 39 136 81 1 32 312 117 25 0 26 137 125 138 83 3 135 1 1 1 8
1 1 137 311 117 28 0 39 46 32 139 83 3 138 1 1 1 81 1 39 347 31 28 137 0 33 43 1
40 81 1 46 310 117 15 0 43 0 137 141 83 3 139 1 1 1 83 3 141 1 1 1 82 1 140 8205
10871 82 1 136 834207902 79 255 15 124 SDL/TYSA_COLOUR83 3 120 1 1 1 79 14 116 S
WEntUnchanged50 110 191 0 94 0 99 0 +.003 .0059 0 0 -1 0 0 0 -1 82 1 109 8590460
44 15 83 169 0 81 94 0 17 42 0 29 42 42 0 142 71 0 0 +17 142 0 143 142 142 0 42
 71 0 0 -15 143 60 0 142 28 0 17 70 0 40 70 70 0 144 67 0 0 +15 40 90 0 70 28 14
3 17 144 0 49 144 144 0 70 67 0 0 -15 49 63 0 144 15 0 17 61 0 58 61 61 0 59 62
 0 0 +15 58 221 0 61 38 106 15 55 266 0 145 17 79 17 145 0 55 145 145 0 21 10 0
 0 -17 21 0 44 21 21 0 145 10 0 0 +82 1 54 862847133 82 1 48 820838558 82 1 34 8
19921047 19 16 34 0 1 0 9 5 S0 74 4 CI16 index_map_offset0 0 1 dCCZ20 14 3 0 0 1
12 2 131 0 0 0 0 0 0 0 0 0 0 0 0 0 0 0 0 0 80 2 12 146 147 8004 0 0 0 0 3 5 0 0
 0 FFTFFFFFFFFFFF2 3 83 1 13 1246.5 79 16 147 SDL/TYSA_DENSITY1 0 
